<svg xmlns="http://www.w3.org/2000/svg" width="100" height="100" viewBox="0 0 100 100">
  <g id="Profile_Pic" data-name="Profile Pic" transform="translate(-138 -172)">
    <circle id="Ellipse_1" data-name="Ellipse 1" cx="50" cy="50" r="50" transform="translate(138 172)" fill="#d9d0ea" opacity="0.4"/>
    <path id="Path_1449" data-name="Path 1449" d="M-.32-11.856a5.818,5.818,0,0,0,5.7-5.9A5.7,5.7,0,0,0-.32-23.5a5.744,5.744,0,0,0-5.7,5.766A5.8,5.8,0,0,0-.32-11.856ZM-9.289.5H8.622c2.253,0,3.052-.6,3.052-1.775,0-3.444-4.606-8.2-12.007-8.2s-11.993,4.752-11.993,8.2C-12.327-.1-11.528.5-9.289.5Z" transform="translate(188.327 233.496)" fill="#3f2c65"/>
  </g>
</svg>
